<svg width="29" height="22" viewBox="0 0 29 22" fill="none" xmlns="http://www.w3.org/2000/svg">
<g clip-path="url(#clip0_914_5812)">
<path d="M7.02937 14.6992L0.052124 14.6485L3.82281 7.43945" fill="#004496"/>
<path d="M10.8556 7.02051L3.81592 7.44014L7.02936 14.6999" fill="#0050AA"/>
<path d="M7.65475 0.0546875L3.81592 7.43991L10.8556 7.02027" fill="#005BBF"/>
<path d="M10.8555 7.0219L7.59509 0.0551758L14.2173 0.103639" fill="#007EFC"/>
<path d="M17.3964 7.53858L10.8567 6.96158L14.2179 0.102051" fill="#005BBF"/>
<path d="M17.3959 7.5394L10.8562 6.9624L13.5164 13.9736" fill="#0050AA"/>
<path d="M14.219 14.168L10.1826 21.2236L17.2641 21.6723" fill="#004496"/>
<path d="M25.1303 7.271L18.011 7.40954L20.8533 14.8409" fill="#0072E8"/>
<path d="M14.187 14.225L20.9575 14.6543L18.0115 7.45215L14.187 14.225Z" fill="#005BBF"/>
<path d="M18.0562 7.45476L25.0569 7.3088L22.3062 0.295898L18.0562 7.45476Z" fill="#005BBF"/>
<path d="M17.2314 21.6677L14.1824 14.2231L20.954 14.6525" fill="#0050AA"/>
<path d="M22.2467 0.292969L25.0489 7.42732L28.8563 0.712033L22.2467 0.292969Z" fill="#007EFC"/>
</g>
<defs>
<clipPath id="clip0_914_5812">
<rect width="29" height="22" fill="white"/>
</clipPath>
</defs>
</svg>
