<svg width="33" height="31" viewBox="0 0 33 31" fill="none" xmlns="http://www.w3.org/2000/svg">
<rect x="1.37869" y="0.453515" width="30.839" height="29.932" rx="3.1746" fill="white" stroke="#B5E5FF" stroke-width="0.907029"/>
<g clip-path="url(#clip0_22_5674)">
<path d="M23.8169 12.0071V21.9239C23.8169 22.3516 23.6454 22.7628 23.3403 23.0657C23.0347 23.368 22.6208 23.5384 22.1892 23.5384H12.423C11.9915 23.5384 11.577 23.368 11.2719 23.0657C11.121 22.9161 11.0013 22.7382 10.9195 22.5421C10.8377 22.3461 10.7955 22.1358 10.7953 21.9234V8.91658C10.7953 8.4878 10.9668 8.07716 11.2719 7.77427C11.5781 7.4709 11.9919 7.30096 12.423 7.30152H19.0734M23.8169 12.0071C23.8169 11.5794 23.6454 11.1688 23.3398 10.8659L20.2245 7.77482C19.9184 7.47125 19.5046 7.30111 19.0734 7.30152" fill="#F1F9FE"/>
<path d="M17.3061 20.8465L14.8643 18.4239M17.3061 20.8465L19.7474 18.4239M17.3061 20.8465L17.3067 16.0013M23.8175 12.0071V21.9239C23.8175 22.3516 23.646 22.7628 23.3409 23.0657C23.0352 23.368 22.6213 23.5384 22.1898 23.5384H12.423C11.9915 23.5384 11.577 23.368 11.2719 23.0657C11.121 22.9161 11.0013 22.7382 10.9195 22.5421C10.8377 22.3461 10.7955 22.1358 10.7953 21.9234V8.91658C10.7953 8.4878 10.9668 8.07716 11.2719 7.77427C11.5781 7.4709 11.9919 7.30096 12.423 7.30152H19.0734C19.5055 7.30152 19.9195 7.47193 20.2245 7.77427L23.3398 10.8659C23.6454 11.1682 23.8169 11.5794 23.8169 12.0076" stroke="#2E404A" stroke-width="0.3848" stroke-linecap="round" stroke-linejoin="round"/>
<path d="M18.986 10.3951H9.62597C9.31708 10.3939 9.02036 10.5154 8.80101 10.7329C8.58166 10.9504 8.45763 11.2461 8.45618 11.555V15.4211C8.45763 15.73 8.58166 16.0257 8.80101 16.2432C9.02036 16.4607 9.31708 16.5822 9.62597 16.581H18.986C19.295 16.5823 19.5918 16.4609 19.8113 16.2434C20.0307 16.0259 20.1549 15.7301 20.1563 15.4211V11.5544C20.1549 11.2455 20.0307 10.9497 19.8113 10.7322C19.5918 10.5147 19.295 10.3938 18.986 10.3951Z" fill="#FFD2DD"/>
<path d="M11.0213 14.9282C10.9069 14.9282 10.8186 14.8971 10.7563 14.8348C10.694 14.7706 10.6628 14.6818 10.6628 14.5681V12.5271C10.6628 12.4109 10.694 12.3218 10.7563 12.2599C10.8212 12.1983 10.9109 12.1675 11.0257 12.1675H11.9849C12.2968 12.1675 12.5372 12.2474 12.7061 12.4072C12.8776 12.5644 12.9634 12.7821 12.9634 13.0603C12.9634 13.3388 12.8776 13.558 12.7061 13.7177C12.5372 13.875 12.2968 13.9536 11.9849 13.9536H11.3802V14.5681C11.3802 14.6818 11.3504 14.7708 11.2906 14.8353C11.2309 14.8969 11.1411 14.9277 11.0213 14.9277M11.3802 13.4077H11.8601C11.9954 13.4077 12.0992 13.3795 12.1718 13.323C12.2451 13.2637 12.2816 13.1759 12.2812 13.0597C12.2812 12.9414 12.2447 12.8538 12.1718 12.797C12.0992 12.7402 11.9954 12.7118 11.8601 12.7118H11.3802V13.4077ZM13.4774 14.8925C13.3553 14.8925 13.2619 14.8615 13.197 14.7996C13.1347 14.7354 13.1036 14.644 13.1036 14.5253V12.5342C13.1036 12.4155 13.1347 12.3251 13.197 12.2632C13.2619 12.1991 13.3553 12.167 13.4774 12.167H14.2415C14.7201 12.167 15.0895 12.2855 15.3497 12.5227C15.6121 12.7594 15.7433 13.0944 15.7433 13.5275C15.7433 13.7441 15.7096 13.9374 15.6422 14.1075C15.5747 14.275 15.4772 14.4181 15.3497 14.5368C15.213 14.6583 15.052 14.7494 14.8775 14.804C14.6715 14.866 14.4572 14.8959 14.242 14.8925H13.4774ZM13.821 14.3164H14.1948C14.3329 14.3164 14.4513 14.2997 14.5499 14.2664C14.6514 14.233 14.7346 14.1839 14.7994 14.119C14.8669 14.0549 14.9164 13.9737 14.9479 13.8755C14.982 13.7777 14.9988 13.6617 14.9984 13.5275C14.9984 13.26 14.9323 13.0628 14.8 12.936C14.667 12.8074 14.4654 12.7431 14.1953 12.7431H13.821V14.3164ZM16.337 14.9271C16.2227 14.9271 16.1329 14.8963 16.0676 14.8348C16.0053 14.7703 15.9742 14.6786 15.9742 14.5599V12.5342C15.9742 12.4155 16.0053 12.3251 16.0676 12.2632C16.1329 12.1991 16.2265 12.167 16.3485 12.167H17.6475C17.741 12.167 17.8112 12.1901 17.8581 12.2363C17.9046 12.2824 17.9279 12.3495 17.9279 12.4375C17.9279 12.5272 17.9046 12.5969 17.8581 12.6463C17.8112 12.6925 17.7408 12.7156 17.647 12.7156H16.6916V13.2648H17.5612C17.6521 13.2648 17.7212 13.288 17.7685 13.3346C17.8179 13.3808 17.8425 13.4476 17.8421 13.5352C17.8421 13.6258 17.8174 13.6941 17.7679 13.7403C17.7214 13.7868 17.6525 13.8101 17.5612 13.8101H16.6916V14.5599C16.6916 14.8047 16.5734 14.9271 16.337 14.9271Z" fill="#FB7E6D"/>
</g>
<defs>
<clipPath id="clip0_22_5674">
<rect width="18.1406" height="18.1406" fill="white" transform="translate(8.1814 6.34912)"/>
</clipPath>
</defs>
</svg>
