<svg width="33" height="31" viewBox="0 0 33 31" fill="none" xmlns="http://www.w3.org/2000/svg">
<rect x="1.37869" y="0.455712" width="30.839" height="29.932" rx="3.1746" fill="white" stroke="#B5E5FF" stroke-width="0.907029"/>
<g clip-path="url(#clip0_22_5681)">
<path d="M24.5612 11.8129V21.7292C24.5612 22.1574 24.3825 22.568 24.0654 22.8709C23.7482 23.1738 23.3177 23.3437 22.8686 23.3437H12.7154C12.2663 23.3437 11.8359 23.1738 11.5187 22.8709C11.3629 22.7242 11.2386 22.5473 11.1534 22.351C11.0681 22.1547 11.0237 21.9432 11.0228 21.7292V8.72072C11.0228 8.29249 11.2009 7.88186 11.5187 7.57896C11.8422 7.27413 12.2703 7.10494 12.7148 7.10621H19.6303M24.5612 11.8118C24.5612 11.3835 24.3825 10.9729 24.0654 10.67L20.8264 7.57896C20.5028 7.274 20.075 7.1048 19.6303 7.10621" fill="#EDF9FF"/>
<path d="M17.792 20.6523L15.2534 18.2297M17.792 20.6523L20.3306 18.2297M17.792 20.6523V15.8065M24.5612 11.8118V21.7286C24.5612 22.1569 24.3825 22.5675 24.0654 22.8704C23.7482 23.1733 23.3177 23.3431 22.8686 23.3431H12.7154C12.2663 23.3431 11.8359 23.1733 11.5187 22.8704C11.3629 22.7236 11.2386 22.5468 11.1534 22.3505C11.0681 22.1542 11.0237 21.9426 11.0228 21.7286V8.72072C11.0228 8.29249 11.2009 7.88186 11.5187 7.57896C11.8422 7.27413 12.2703 7.10493 12.7148 7.10621H19.6303C20.0783 7.10621 20.5087 7.27662 20.8264 7.57896L24.0654 10.67C24.3825 10.9729 24.5612 11.3835 24.5612 11.8118Z" stroke="#2E404A" stroke-width="0.3848" stroke-linecap="round" stroke-linejoin="round"/>
<path d="M19.7897 10.4309H9.8344C9.67149 10.4303 9.51007 10.4619 9.35935 10.5237C9.20863 10.5855 9.07157 10.6764 8.95599 10.7912C8.84042 10.906 8.74859 11.0425 8.68577 11.1928C8.62294 11.3431 8.59035 11.5043 8.58984 11.6672V15.7868C8.59035 15.9497 8.62294 16.1109 8.68577 16.2612C8.74859 16.4115 8.84042 16.548 8.95599 16.6628C9.07157 16.7776 9.20863 16.8685 9.35935 16.9303C9.51007 16.9922 9.67149 17.0237 9.8344 17.0231H19.7897C19.9526 17.0237 20.1141 16.9922 20.2648 16.9303C20.4155 16.8685 20.5526 16.7776 20.6681 16.6628C20.7837 16.548 20.8755 16.4115 20.9384 16.2612C21.0012 16.1109 21.0338 15.9497 21.0343 15.7868V11.6672C21.0338 11.5043 21.0012 11.3431 20.9384 11.1928C20.8755 11.0425 20.7837 10.906 20.6681 10.7912C20.5526 10.6764 20.4155 10.5855 20.2648 10.5237C20.1141 10.4619 19.9526 10.4303 19.7897 10.4309Z" fill="#BDE7FF"/>
<path d="M17.9664 14.9642C17.663 14.9642 17.4022 14.9061 17.1842 14.79C16.9718 14.6796 16.7969 14.5088 16.6817 14.2991C16.5674 14.0876 16.5102 13.8402 16.5102 13.5569C16.5102 13.3455 16.5426 13.1533 16.6075 12.9803C16.6753 12.808 16.7713 12.66 16.8956 12.5361C17.0231 12.4119 17.1763 12.3177 17.3551 12.2536C17.5365 12.1865 17.7403 12.153 17.9664 12.153C18.0859 12.153 18.2092 12.1673 18.3364 12.1958C18.4661 12.2215 18.5802 12.2614 18.6788 12.3157C18.7514 12.3542 18.802 12.4031 18.8306 12.4625C18.8586 12.5185 18.8683 12.582 18.858 12.6439C18.851 12.7042 18.8283 12.7617 18.7921 12.8104C18.7574 12.8581 18.7082 12.8934 18.6519 12.911C18.5883 12.9252 18.5218 12.9155 18.465 12.8835C18.3901 12.8487 18.3118 12.8216 18.2314 12.8027C18.154 12.7817 18.0741 12.7713 17.9939 12.772C17.8326 12.772 17.6976 12.8027 17.5887 12.8643C17.4825 12.9237 17.402 13.0114 17.3474 13.1276C17.2928 13.2438 17.2655 13.3867 17.2655 13.5564C17.2655 13.7261 17.2928 13.8705 17.3474 13.9896C17.402 14.1054 17.4825 14.1944 17.5887 14.2567C17.6976 14.3161 17.8326 14.3458 17.9939 14.3458C18.0613 14.3458 18.1339 14.3379 18.2116 14.3221C18.2909 14.3038 18.368 14.2767 18.4414 14.2413C18.5051 14.2094 18.5776 14.1997 18.6475 14.2139C18.7062 14.2272 18.7585 14.2601 18.7959 14.3073C18.8344 14.3535 18.859 14.4075 18.8696 14.4695C18.8797 14.5301 18.8701 14.5923 18.8421 14.647C18.8131 14.7091 18.7639 14.7595 18.7025 14.79C18.6112 14.8442 18.4983 14.8867 18.3638 14.9175C18.2315 14.9486 18.0991 14.9642 17.9664 14.9642ZM14.9545 14.9642C14.6771 14.9642 14.4334 14.9061 14.2234 14.79C14.0166 14.6743 13.8465 14.5029 13.7325 14.2952C13.6182 14.0841 13.561 13.8378 13.561 13.5564C13.561 13.3453 13.5934 13.1535 13.6583 12.9808C13.7257 12.8079 13.8204 12.6594 13.9425 12.5356C14.069 12.4115 14.2201 12.3155 14.3861 12.2536C14.5675 12.1845 14.7604 12.1504 14.9545 12.153C15.2327 12.153 15.4755 12.2111 15.6829 12.3272C15.8929 12.443 16.0563 12.6067 16.1732 12.8181C16.2905 13.027 16.349 13.2733 16.3486 13.5569C16.3486 13.768 16.3149 13.9601 16.2474 14.133C16.1826 14.3057 16.0878 14.4552 15.9632 14.5816C15.8382 14.7066 15.6884 14.804 15.5235 14.8675C15.3413 14.9341 15.1485 14.9668 14.9545 14.9642ZM14.9545 14.3689C15.0919 14.3689 15.2088 14.3366 15.3052 14.2721C15.4016 14.208 15.4756 14.1151 15.5273 13.9934C15.579 13.8725 15.6048 13.727 15.6048 13.5569C15.6048 13.3015 15.5478 13.1029 15.4339 12.9611C15.3199 12.8192 15.1601 12.7483 14.9545 12.7483C14.82 12.7483 14.7033 12.7806 14.6043 12.8451C14.508 12.9074 14.4341 12.999 14.3828 13.1199C14.3274 13.2586 14.3009 13.4071 14.3047 13.5564C14.3047 13.8118 14.3617 14.0116 14.4757 14.1556C14.59 14.2978 14.7497 14.3689 14.9545 14.3689ZM11.1422 14.9213C11.0202 14.9213 10.9268 14.8904 10.8619 14.8284C10.7996 14.7643 10.7684 14.6727 10.7684 14.5536V12.5631C10.7684 12.4447 10.7996 12.3545 10.8619 12.2926C10.9268 12.2281 11.0202 12.1958 11.1422 12.1958H11.9052C12.3831 12.1958 12.7516 12.3144 13.0107 12.5515C13.2731 12.7886 13.4043 13.124 13.4043 13.5575C13.4043 13.7737 13.3706 13.9668 13.3032 14.1369C13.2357 14.3044 13.1383 14.4475 13.0107 14.5662C12.8743 14.6874 12.7137 14.7782 12.5396 14.8328C12.3553 14.8922 12.1438 14.9219 11.9052 14.9219L11.1422 14.9213ZM11.4847 14.3452H11.8585C11.9959 14.3452 12.1141 14.3286 12.2131 14.2952C12.3142 14.2619 12.3972 14.2128 12.4621 14.1479C12.5295 14.0834 12.5788 14.0022 12.61 13.9044C12.6437 13.8061 12.6606 13.6902 12.6606 13.5564C12.6606 13.2881 12.5944 13.091 12.4621 12.9649C12.3298 12.8359 12.1286 12.7714 11.8585 12.7714H11.4847V14.3452Z" fill="#05A2FF"/>
</g>
<defs>
<clipPath id="clip0_22_5681">
<rect width="18.1406" height="18.1406" fill="white" transform="translate(8.1814 6.35156)"/>
</clipPath>
</defs>
</svg>
