<svg width="67" height="20" viewBox="0 0 67 20" fill="none" xmlns="http://www.w3.org/2000/svg">
<rect x="0.384335" y="0.742612" width="65.3288" height="18.2313" rx="3.41837" fill="#E3FFF3" stroke="#D0F4E2" stroke-width="0.759637"/>
<path d="M16.5771 12.9207H15.402L17.5415 6.84356H18.9005L21.0429 12.9207H19.8678L18.2447 8.08984H18.1972L16.5771 12.9207ZM16.6157 10.5379H19.8204V11.4222H16.6157V10.5379ZM20.5076 7.7664V6.84356H25.3563V7.7664H23.4779V12.9207H22.386V7.7664H20.5076ZM29.2594 8.51417C29.2317 8.25502 29.115 8.05324 28.9092 7.90883C28.7055 7.76442 28.4404 7.69221 28.114 7.69221C27.8845 7.69221 27.6877 7.72683 27.5235 7.79607C27.3593 7.86531 27.2337 7.95927 27.1466 8.07797C27.0596 8.19666 27.0151 8.33217 27.0131 8.48449C27.0131 8.6111 27.0418 8.72089 27.0991 8.81387C27.1585 8.90684 27.2386 8.98597 27.3395 9.05125C27.4404 9.11456 27.5522 9.16797 27.6748 9.21149C27.7975 9.25501 27.9211 9.29161 28.0457 9.32128L28.6155 9.46371C28.8449 9.51712 29.0655 9.58933 29.2772 9.68033C29.4908 9.77133 29.6817 9.88606 29.8499 10.0245C30.02 10.163 30.1545 10.3302 30.2534 10.526C30.3523 10.7219 30.4018 10.9513 30.4018 11.2144C30.4018 11.5705 30.3108 11.8841 30.1288 12.1551C29.9468 12.4241 29.6837 12.6348 29.3395 12.7871C28.9973 12.9375 28.5828 13.0126 28.0962 13.0126C27.6234 13.0126 27.2129 12.9394 26.8647 12.7931C26.5185 12.6467 26.2475 12.433 26.0517 12.1521C25.8578 11.8712 25.753 11.529 25.7371 11.1254H26.8202C26.836 11.3371 26.9013 11.5131 27.0161 11.6536C27.1308 11.7941 27.2802 11.8989 27.4641 11.9681C27.6501 12.0374 27.8578 12.072 28.0873 12.072C28.3266 12.072 28.5363 12.0364 28.7163 11.9652C28.8983 11.892 29.0408 11.7911 29.1436 11.6625C29.2465 11.5319 29.2989 11.3796 29.3009 11.2055C29.2989 11.0473 29.2524 10.9167 29.1614 10.8138C29.0704 10.709 28.9429 10.622 28.7787 10.5527C28.6164 10.4815 28.4265 10.4182 28.2089 10.3628L27.5175 10.1848C27.0171 10.0562 26.6214 9.86133 26.3306 9.60021C26.0418 9.33711 25.8974 8.98795 25.8974 8.55274C25.8974 8.19468 25.9943 7.88113 26.1882 7.6121C26.384 7.34306 26.6501 7.13436 26.9864 6.98599C27.3227 6.83564 27.7035 6.76047 28.1288 6.76047C28.5601 6.76047 28.9379 6.83564 29.2623 6.98599C29.5887 7.13436 29.8449 7.34108 30.0309 7.60616C30.2168 7.86926 30.3128 8.17193 30.3187 8.51417H29.2594ZM32.7874 12.9207V6.84356H35.0663C35.5332 6.84356 35.9249 6.9306 36.2414 7.10468C36.5599 7.27877 36.8003 7.51813 36.9625 7.82278C37.1267 8.12544 37.2088 8.46966 37.2088 8.85541C37.2088 9.24512 37.1267 9.59131 36.9625 9.89398C36.7983 10.1966 36.5559 10.435 36.2355 10.6091C35.915 10.7812 35.5203 10.8673 35.0515 10.8673H33.5411V9.96222H34.9031C35.1761 9.96222 35.3997 9.91475 35.5738 9.81979C35.7478 9.72484 35.8764 9.59427 35.9595 9.4281C36.0446 9.26193 36.0871 9.07103 36.0871 8.85541C36.0871 8.63978 36.0446 8.44987 35.9595 8.28568C35.8764 8.12149 35.7469 7.99389 35.5708 7.90289C35.3967 7.80992 35.1722 7.76343 34.8972 7.76343H33.8883V12.9207H32.7874ZM39.7358 13.0097C39.2788 13.0097 38.8841 12.9147 38.5518 12.7248C38.2214 12.5329 37.9672 12.2619 37.7892 11.9118C37.6112 11.5596 37.5221 11.1452 37.5221 10.6684C37.5221 10.1996 37.6112 9.78814 37.7892 9.43404C37.9692 9.07796 38.2205 8.80101 38.5429 8.60319C38.8654 8.40338 39.2442 8.30348 39.6794 8.30348C39.9603 8.30348 40.2254 8.34898 40.4746 8.43998C40.7259 8.529 40.9474 8.66748 41.1393 8.85541C41.3332 9.04334 41.4855 9.2827 41.5963 9.5735C41.7071 9.86232 41.7625 10.2065 41.7625 10.6061V10.9355H38.0266V10.2115H40.7328C40.7308 10.0057 40.6863 9.82276 40.5993 9.66252C40.5122 9.50031 40.3906 9.37271 40.2343 9.27974C40.08 9.18676 39.9 9.14027 39.6942 9.14027C39.4746 9.14027 39.2818 9.19368 39.1156 9.30051C38.9494 9.40535 38.8199 9.54383 38.7269 9.71593C38.6359 9.88606 38.5894 10.073 38.5874 10.2768V10.9088C38.5874 11.1739 38.6359 11.4014 38.7328 11.5913C38.8297 11.7792 38.9653 11.9236 39.1393 12.0245C39.3134 12.1234 39.5172 12.1729 39.7506 12.1729C39.9069 12.1729 40.0483 12.1511 40.1749 12.1076C40.3015 12.0621 40.4113 11.9958 40.5043 11.9088C40.5973 11.8218 40.6675 11.7139 40.715 11.5854L41.7179 11.6981C41.6546 11.9632 41.534 12.1946 41.3559 12.3925C41.1799 12.5883 40.9544 12.7406 40.6794 12.8494C40.4044 12.9563 40.0899 13.0097 39.7358 13.0097ZM42.337 12.9207V8.36283H43.3785V9.12247H43.426C43.5091 8.85937 43.6515 8.6566 43.8533 8.51417C44.057 8.36976 44.2895 8.29755 44.5506 8.29755C44.6099 8.29755 44.6762 8.30052 44.7494 8.30645C44.8246 8.31041 44.8869 8.31733 44.9363 8.32722V9.31535C44.8908 9.29952 44.8186 9.28567 44.7197 9.2738C44.6228 9.25995 44.5288 9.25303 44.4378 9.25303C44.242 9.25303 44.0659 9.29556 43.9097 9.38063C43.7553 9.46371 43.6337 9.57944 43.5447 9.7278C43.4556 9.87617 43.4111 10.0473 43.4111 10.2412V12.9207H42.337ZM47.8691 8.36283V9.19368H45.1748V8.36283H47.8691ZM45.8484 12.9207V7.93257C45.8484 7.62594 45.9117 7.37075 46.0383 7.167C46.1669 6.96324 46.339 6.81092 46.5546 6.71003C46.7702 6.60914 47.0096 6.55869 47.2727 6.55869C47.4587 6.55869 47.6238 6.57353 47.7683 6.6032C47.9127 6.63288 48.0195 6.65958 48.0887 6.68332L47.8751 7.51417C47.8296 7.50033 47.7722 7.48648 47.703 7.47263C47.6337 7.45681 47.5566 7.44889 47.4715 7.44889C47.2717 7.44889 47.1303 7.49736 47.0472 7.59429C46.9661 7.68925 46.9255 7.82574 46.9255 8.00378V12.9207H45.8484ZM50.2226 13.0097C49.7656 13.0097 49.3709 12.9147 49.0386 12.7248C48.7082 12.5329 48.454 12.2619 48.276 11.9118C48.098 11.5596 48.0089 11.1452 48.0089 10.6684C48.0089 10.1996 48.098 9.78814 48.276 9.43404C48.456 9.07796 48.7072 8.80101 49.0297 8.60319C49.3521 8.40338 49.731 8.30348 50.1662 8.30348C50.4471 8.30348 50.7122 8.34898 50.9614 8.43998C51.2127 8.529 51.4342 8.66748 51.6261 8.85541C51.82 9.04334 51.9723 9.2827 52.0831 9.5735C52.1939 9.86232 52.2492 10.2065 52.2492 10.6061V10.9355H48.5134V10.2115H51.2196C51.2176 10.0057 51.1731 9.82276 51.0861 9.66252C50.999 9.50031 50.8774 9.37271 50.7211 9.27974C50.5668 9.18676 50.3868 9.14027 50.181 9.14027C49.9614 9.14027 49.7686 9.19368 49.6024 9.30051C49.4362 9.40535 49.3066 9.54383 49.2137 9.71593C49.1227 9.88606 49.0762 10.073 49.0742 10.2768V10.9088C49.0742 11.1739 49.1227 11.4014 49.2196 11.5913C49.3165 11.7792 49.452 11.9236 49.6261 12.0245C49.8002 12.1234 50.004 12.1729 50.2374 12.1729C50.3937 12.1729 50.5351 12.1511 50.6617 12.1076C50.7883 12.0621 50.8981 11.9958 50.9911 11.9088C51.0841 11.8218 51.1543 11.7139 51.2018 11.5854L52.2047 11.6981C52.1414 11.9632 52.0208 12.1946 51.8427 12.3925C51.6667 12.5883 51.4411 12.7406 51.1662 12.8494C50.8912 12.9563 50.5767 13.0097 50.2226 13.0097ZM54.8119 13.0097C54.3569 13.0097 53.9662 12.9098 53.6398 12.71C53.3153 12.5102 53.0651 12.2342 52.889 11.8821C52.715 11.528 52.6279 11.1205 52.6279 10.6595C52.6279 10.1966 52.7169 9.78814 52.895 9.43404C53.073 9.07796 53.3242 8.80101 53.6487 8.60319C53.9751 8.40338 54.3608 8.30348 54.8059 8.30348C55.1759 8.30348 55.5033 8.37173 55.7881 8.50823C56.075 8.64275 56.3034 8.83365 56.4736 9.08093C56.6437 9.32623 56.7406 9.61307 56.7644 9.94145H55.7377C55.6961 9.72187 55.5972 9.53888 55.4409 9.3925C55.2866 9.24413 55.0799 9.16995 54.8208 9.16995C54.6012 9.16995 54.4083 9.22929 54.2421 9.34799C54.076 9.4647 53.9464 9.63285 53.8534 9.85243C53.7624 10.072 53.7169 10.3351 53.7169 10.6417C53.7169 10.9523 53.7624 11.2194 53.8534 11.4429C53.9444 11.6645 54.072 11.8356 54.2362 11.9563C54.4024 12.075 54.5972 12.1343 54.8208 12.1343C54.979 12.1343 55.1205 12.1046 55.2451 12.0453C55.3717 11.984 55.4775 11.8959 55.5626 11.7812C55.6477 11.6665 55.706 11.527 55.7377 11.3628H56.7644C56.7387 11.6853 56.6437 11.9711 56.4795 12.2204C56.3153 12.4676 56.0918 12.6615 55.8089 12.802C55.526 12.9404 55.1937 13.0097 54.8119 13.0097ZM59.5881 8.36283V9.19368H56.968V8.36283H59.5881ZM57.6148 7.27085H58.689V11.5497C58.689 11.6942 58.7108 11.8049 58.7543 11.8821C58.7998 11.9573 58.8591 12.0087 58.9323 12.0364C59.0055 12.0641 59.0866 12.0779 59.1757 12.0779C59.2429 12.0779 59.3042 12.073 59.3596 12.0631C59.417 12.0532 59.4605 12.0443 59.4902 12.0364L59.6712 12.8761C59.6138 12.8959 59.5317 12.9177 59.4249 12.9414C59.3201 12.9652 59.1915 12.979 59.0392 12.983C58.7701 12.9909 58.5278 12.9503 58.3122 12.8613C58.0965 12.7703 57.9254 12.6299 57.7988 12.4399C57.6742 12.25 57.6129 12.0127 57.6148 11.7278V7.27085Z" fill="#09BC72"/>
<g clip-path="url(#clip0_22_5636)">
<mask id="mask0_22_5636" style="mask-type:luminance" maskUnits="userSpaceOnUse" x="3" y="5" width="10" height="10">
<path d="M3.80273 5.68066H12.9184V14.7963H3.80273V5.68066Z" fill="white"/>
</mask>
<g mask="url(#mask0_22_5636)">
<path fill-rule="evenodd" clip-rule="evenodd" d="M8.48059 5.70013L10.8601 6.49357C11.2384 6.61934 11.5675 6.86108 11.8006 7.18445C12.0337 7.50783 12.159 7.89641 12.1588 8.29505V10.2386C12.1588 13.1111 8.66442 14.6976 8.51477 14.7637C8.46622 14.7853 8.41369 14.7964 8.36056 14.7964C8.30744 14.7964 8.25491 14.7853 8.20636 14.7637C8.05671 14.6976 4.56238 13.1111 4.56238 10.2386V8.29505C4.56213 7.89641 4.68745 7.50783 4.92056 7.18445C5.15366 6.86108 5.48271 6.61934 5.86098 6.49357L8.24054 5.70013C8.31845 5.67418 8.40268 5.67418 8.48059 5.70013ZM8.36056 13.9946C8.99904 13.6695 11.3991 12.3105 11.3991 10.2386V8.29505C11.3991 8.05587 11.3238 7.82276 11.1839 7.62875C11.044 7.43474 10.8466 7.28966 10.6197 7.21408L8.36056 6.4609L6.1014 7.21408C5.87448 7.28966 5.67709 7.43474 5.53721 7.62875C5.39732 7.82276 5.32204 8.05587 5.32202 8.29505V10.2386C5.32202 12.3158 7.72133 13.6706 8.36056 13.9946ZM8.02329 10.4285L9.61397 8.83325C9.6491 8.79655 9.69122 8.76724 9.73785 8.74704C9.78447 8.72685 9.83466 8.71617 9.88547 8.71565C9.93628 8.71512 9.98668 8.72475 10.0337 8.74398C10.0807 8.76321 10.1235 8.79164 10.1593 8.8276C10.1952 8.86357 10.2236 8.90635 10.2427 8.95342C10.2618 9.00049 10.2714 9.05091 10.2707 9.10172C10.2701 9.15252 10.2593 9.20269 10.239 9.24927C10.2187 9.29586 10.1893 9.33791 10.1525 9.37297L8.52996 10.9956C8.46354 11.0624 8.38452 11.1153 8.29748 11.1514C8.21044 11.1874 8.11712 11.2059 8.02291 11.2056H8.01037C7.91423 11.2042 7.81938 11.1832 7.73156 11.1441C7.64375 11.1049 7.56481 11.0483 7.49952 10.9777L6.62365 10.0661C6.58761 10.0305 6.55907 9.98802 6.5397 9.94119C6.52034 9.89435 6.51054 9.84411 6.51089 9.79343C6.51124 9.74275 6.52173 9.69266 6.54174 9.64609C6.56175 9.59953 6.59088 9.55744 6.6274 9.52231C6.66393 9.48717 6.70712 9.45971 6.75443 9.44152C6.80173 9.42334 6.8522 9.41481 6.90286 9.41643C6.95351 9.41805 7.00333 9.42979 7.04938 9.45097C7.09542 9.47214 7.13677 9.50231 7.17097 9.53971L8.02329 10.4285Z" fill="#09BC72"/>
</g>
</g>
<defs>
<clipPath id="clip0_22_5636">
<rect width="9.11565" height="9.11565" fill="white" transform="translate(3.80273 5.68042)"/>
</clipPath>
</defs>
</svg>
